<mxfile host="app.diagrams.net" modified="2023-06-15T07:45:56.623Z" agent="Mozilla/5.0 (Windows NT 10.0; Win64; x64) AppleWebKit/537.36 (KHTML, like Gecko) Chrome/114.0.0.0 Safari/537.36" etag="9uogcVOm9XpFTnOZ7kC6" version="21.3.5" type="github">
  <diagram name="Page-1" id="uDbr7ncSvFRYVL_84d-0">
    <mxGraphModel dx="1195" dy="657" grid="1" gridSize="10" guides="1" tooltips="1" connect="1" arrows="1" fold="1" page="1" pageScale="1" pageWidth="850" pageHeight="1100" math="0" shadow="0">
      <root>
        <mxCell id="0" />
        <mxCell id="1" parent="0" />
        <mxCell id="jdthE1kOP9W3dMnnoPZ4-1" value="Assets" style="childLayout=tableLayout;recursiveResize=0;strokeColor=#98bf21;fillColor=#A7C942;shadow=1;" vertex="1" parent="1">
          <mxGeometry x="9" y="236" width="830" height="781.9999999999999" as="geometry" />
        </mxCell>
        <mxCell id="jdthE1kOP9W3dMnnoPZ4-2" style="shape=tableRow;horizontal=0;startSize=0;swimlaneHead=0;swimlaneBody=0;top=0;left=0;bottom=0;right=0;dropTarget=0;collapsible=0;recursiveResize=0;expand=0;fontStyle=0;strokeColor=inherit;fillColor=#ffffff;" vertex="1" parent="jdthE1kOP9W3dMnnoPZ4-1">
          <mxGeometry width="830" height="26" as="geometry" />
        </mxCell>
        <mxCell id="jdthE1kOP9W3dMnnoPZ4-44" value="Rank" style="connectable=0;recursiveResize=0;strokeColor=inherit;fillColor=#A7C942;align=center;fontStyle=1;fontColor=#FFFFFF;html=1;" vertex="1" parent="jdthE1kOP9W3dMnnoPZ4-2">
          <mxGeometry width="112" height="26" as="geometry">
            <mxRectangle width="112" height="26" as="alternateBounds" />
          </mxGeometry>
        </mxCell>
        <mxCell id="jdthE1kOP9W3dMnnoPZ4-3" value="Student Name" style="connectable=0;recursiveResize=0;strokeColor=inherit;fillColor=#A7C942;align=center;fontStyle=1;fontColor=#FFFFFF;html=1;" vertex="1" parent="jdthE1kOP9W3dMnnoPZ4-2">
          <mxGeometry x="112" width="648" height="26" as="geometry">
            <mxRectangle width="648" height="26" as="alternateBounds" />
          </mxGeometry>
        </mxCell>
        <mxCell id="jdthE1kOP9W3dMnnoPZ4-5" value="Points" style="connectable=0;recursiveResize=0;strokeColor=inherit;fillColor=#A7C942;align=center;fontStyle=1;fontColor=#FFFFFF;html=1;" vertex="1" parent="jdthE1kOP9W3dMnnoPZ4-2">
          <mxGeometry x="760" width="70" height="26" as="geometry">
            <mxRectangle width="70" height="26" as="alternateBounds" />
          </mxGeometry>
        </mxCell>
        <mxCell id="jdthE1kOP9W3dMnnoPZ4-6" value="" style="shape=tableRow;horizontal=0;startSize=0;swimlaneHead=0;swimlaneBody=0;top=0;left=0;bottom=0;right=0;dropTarget=0;collapsible=0;recursiveResize=0;expand=0;fontStyle=0;strokeColor=inherit;fillColor=#ffffff;" vertex="1" parent="jdthE1kOP9W3dMnnoPZ4-1">
          <mxGeometry y="26" width="830" height="31" as="geometry" />
        </mxCell>
        <mxCell id="jdthE1kOP9W3dMnnoPZ4-45" value="1" style="connectable=0;recursiveResize=0;strokeColor=inherit;fillColor=inherit;align=center;whiteSpace=wrap;html=1;" vertex="1" parent="jdthE1kOP9W3dMnnoPZ4-6">
          <mxGeometry width="112" height="31" as="geometry">
            <mxRectangle width="112" height="31" as="alternateBounds" />
          </mxGeometry>
        </mxCell>
        <mxCell id="jdthE1kOP9W3dMnnoPZ4-7" value="Ahmed&amp;nbsp;" style="connectable=0;recursiveResize=0;strokeColor=inherit;fillColor=inherit;align=center;whiteSpace=wrap;html=1;" vertex="1" parent="jdthE1kOP9W3dMnnoPZ4-6">
          <mxGeometry x="112" width="648" height="31" as="geometry">
            <mxRectangle width="648" height="31" as="alternateBounds" />
          </mxGeometry>
        </mxCell>
        <mxCell id="jdthE1kOP9W3dMnnoPZ4-9" value="45" style="connectable=0;recursiveResize=0;strokeColor=inherit;fillColor=inherit;align=center;whiteSpace=wrap;html=1;" vertex="1" parent="jdthE1kOP9W3dMnnoPZ4-6">
          <mxGeometry x="760" width="70" height="31" as="geometry">
            <mxRectangle width="70" height="31" as="alternateBounds" />
          </mxGeometry>
        </mxCell>
        <mxCell id="jdthE1kOP9W3dMnnoPZ4-10" value="" style="shape=tableRow;horizontal=0;startSize=0;swimlaneHead=0;swimlaneBody=0;top=0;left=0;bottom=0;right=0;dropTarget=0;collapsible=0;recursiveResize=0;expand=0;fontStyle=1;strokeColor=inherit;fillColor=#EAF2D3;" vertex="1" parent="jdthE1kOP9W3dMnnoPZ4-1">
          <mxGeometry y="57" width="830" height="30" as="geometry" />
        </mxCell>
        <mxCell id="jdthE1kOP9W3dMnnoPZ4-46" value="2" style="connectable=0;recursiveResize=0;strokeColor=inherit;fillColor=inherit;whiteSpace=wrap;html=1;" vertex="1" parent="jdthE1kOP9W3dMnnoPZ4-10">
          <mxGeometry width="112" height="30" as="geometry">
            <mxRectangle width="112" height="30" as="alternateBounds" />
          </mxGeometry>
        </mxCell>
        <mxCell id="jdthE1kOP9W3dMnnoPZ4-11" value="Mohamed" style="connectable=0;recursiveResize=0;strokeColor=inherit;fillColor=inherit;whiteSpace=wrap;html=1;" vertex="1" parent="jdthE1kOP9W3dMnnoPZ4-10">
          <mxGeometry x="112" width="648" height="30" as="geometry">
            <mxRectangle width="648" height="30" as="alternateBounds" />
          </mxGeometry>
        </mxCell>
        <mxCell id="jdthE1kOP9W3dMnnoPZ4-13" value="30" style="connectable=0;recursiveResize=0;strokeColor=inherit;fillColor=inherit;whiteSpace=wrap;html=1;" vertex="1" parent="jdthE1kOP9W3dMnnoPZ4-10">
          <mxGeometry x="760" width="70" height="30" as="geometry">
            <mxRectangle width="70" height="30" as="alternateBounds" />
          </mxGeometry>
        </mxCell>
        <mxCell id="jdthE1kOP9W3dMnnoPZ4-14" value="" style="shape=tableRow;horizontal=0;startSize=0;swimlaneHead=0;swimlaneBody=0;top=0;left=0;bottom=0;right=0;dropTarget=0;collapsible=0;recursiveResize=0;expand=0;fontStyle=0;strokeColor=inherit;fillColor=#ffffff;" vertex="1" parent="jdthE1kOP9W3dMnnoPZ4-1">
          <mxGeometry y="87" width="830" height="32" as="geometry" />
        </mxCell>
        <mxCell id="jdthE1kOP9W3dMnnoPZ4-47" value="3" style="connectable=0;recursiveResize=0;strokeColor=inherit;fillColor=inherit;fontStyle=0;align=center;whiteSpace=wrap;html=1;" vertex="1" parent="jdthE1kOP9W3dMnnoPZ4-14">
          <mxGeometry width="112" height="32" as="geometry">
            <mxRectangle width="112" height="32" as="alternateBounds" />
          </mxGeometry>
        </mxCell>
        <mxCell id="jdthE1kOP9W3dMnnoPZ4-15" value="Hussein" style="connectable=0;recursiveResize=0;strokeColor=inherit;fillColor=inherit;fontStyle=0;align=center;whiteSpace=wrap;html=1;" vertex="1" parent="jdthE1kOP9W3dMnnoPZ4-14">
          <mxGeometry x="112" width="648" height="32" as="geometry">
            <mxRectangle width="648" height="32" as="alternateBounds" />
          </mxGeometry>
        </mxCell>
        <mxCell id="jdthE1kOP9W3dMnnoPZ4-17" value="25" style="connectable=0;recursiveResize=0;strokeColor=inherit;fillColor=inherit;fontStyle=0;align=center;whiteSpace=wrap;html=1;" vertex="1" parent="jdthE1kOP9W3dMnnoPZ4-14">
          <mxGeometry x="760" width="70" height="32" as="geometry">
            <mxRectangle width="70" height="32" as="alternateBounds" />
          </mxGeometry>
        </mxCell>
        <mxCell id="jdthE1kOP9W3dMnnoPZ4-18" value="" style="shape=tableRow;horizontal=0;startSize=0;swimlaneHead=0;swimlaneBody=0;top=0;left=0;bottom=0;right=0;dropTarget=0;collapsible=0;recursiveResize=0;expand=0;fontStyle=1;strokeColor=inherit;fillColor=#EAF2D3;" vertex="1" parent="jdthE1kOP9W3dMnnoPZ4-1">
          <mxGeometry y="119" width="830" height="30" as="geometry" />
        </mxCell>
        <mxCell id="jdthE1kOP9W3dMnnoPZ4-48" value="4" style="connectable=0;recursiveResize=0;strokeColor=inherit;fillColor=inherit;whiteSpace=wrap;html=1;" vertex="1" parent="jdthE1kOP9W3dMnnoPZ4-18">
          <mxGeometry width="112" height="30" as="geometry">
            <mxRectangle width="112" height="30" as="alternateBounds" />
          </mxGeometry>
        </mxCell>
        <mxCell id="jdthE1kOP9W3dMnnoPZ4-19" value="Name" style="connectable=0;recursiveResize=0;strokeColor=inherit;fillColor=inherit;whiteSpace=wrap;html=1;" vertex="1" parent="jdthE1kOP9W3dMnnoPZ4-18">
          <mxGeometry x="112" width="648" height="30" as="geometry">
            <mxRectangle width="648" height="30" as="alternateBounds" />
          </mxGeometry>
        </mxCell>
        <mxCell id="jdthE1kOP9W3dMnnoPZ4-21" value="18" style="connectable=0;recursiveResize=0;strokeColor=inherit;fillColor=inherit;whiteSpace=wrap;html=1;" vertex="1" parent="jdthE1kOP9W3dMnnoPZ4-18">
          <mxGeometry x="760" width="70" height="30" as="geometry">
            <mxRectangle width="70" height="30" as="alternateBounds" />
          </mxGeometry>
        </mxCell>
        <mxCell id="jdthE1kOP9W3dMnnoPZ4-57" value="" style="shape=tableRow;horizontal=0;startSize=0;swimlaneHead=0;swimlaneBody=0;top=0;left=0;bottom=0;right=0;dropTarget=0;collapsible=0;recursiveResize=0;expand=0;fontStyle=1;strokeColor=inherit;fillColor=#EAF2D3;" vertex="1" parent="jdthE1kOP9W3dMnnoPZ4-1">
          <mxGeometry y="149" width="830" height="30" as="geometry" />
        </mxCell>
        <mxCell id="jdthE1kOP9W3dMnnoPZ4-58" value="5" style="connectable=0;recursiveResize=0;strokeColor=inherit;fillColor=inherit;whiteSpace=wrap;html=1;" vertex="1" parent="jdthE1kOP9W3dMnnoPZ4-57">
          <mxGeometry width="112" height="30" as="geometry">
            <mxRectangle width="112" height="30" as="alternateBounds" />
          </mxGeometry>
        </mxCell>
        <mxCell id="jdthE1kOP9W3dMnnoPZ4-59" value="Khalil" style="connectable=0;recursiveResize=0;strokeColor=inherit;fillColor=inherit;whiteSpace=wrap;html=1;" vertex="1" parent="jdthE1kOP9W3dMnnoPZ4-57">
          <mxGeometry x="112" width="648" height="30" as="geometry">
            <mxRectangle width="648" height="30" as="alternateBounds" />
          </mxGeometry>
        </mxCell>
        <mxCell id="jdthE1kOP9W3dMnnoPZ4-60" value="18" style="connectable=0;recursiveResize=0;strokeColor=inherit;fillColor=inherit;whiteSpace=wrap;html=1;" vertex="1" parent="jdthE1kOP9W3dMnnoPZ4-57">
          <mxGeometry x="760" width="70" height="30" as="geometry">
            <mxRectangle width="70" height="30" as="alternateBounds" />
          </mxGeometry>
        </mxCell>
        <mxCell id="jdthE1kOP9W3dMnnoPZ4-86" value="" style="shape=tableRow;horizontal=0;startSize=0;swimlaneHead=0;swimlaneBody=0;top=0;left=0;bottom=0;right=0;dropTarget=0;collapsible=0;recursiveResize=0;expand=0;fontStyle=1;strokeColor=inherit;fillColor=#EAF2D3;" vertex="1" parent="jdthE1kOP9W3dMnnoPZ4-1">
          <mxGeometry y="179" width="830" height="30" as="geometry" />
        </mxCell>
        <mxCell id="jdthE1kOP9W3dMnnoPZ4-87" value="6" style="connectable=0;recursiveResize=0;strokeColor=inherit;fillColor=inherit;whiteSpace=wrap;html=1;" vertex="1" parent="jdthE1kOP9W3dMnnoPZ4-86">
          <mxGeometry width="112" height="30" as="geometry">
            <mxRectangle width="112" height="30" as="alternateBounds" />
          </mxGeometry>
        </mxCell>
        <mxCell id="jdthE1kOP9W3dMnnoPZ4-88" value="Khalil" style="connectable=0;recursiveResize=0;strokeColor=inherit;fillColor=inherit;whiteSpace=wrap;html=1;" vertex="1" parent="jdthE1kOP9W3dMnnoPZ4-86">
          <mxGeometry x="112" width="648" height="30" as="geometry">
            <mxRectangle width="648" height="30" as="alternateBounds" />
          </mxGeometry>
        </mxCell>
        <mxCell id="jdthE1kOP9W3dMnnoPZ4-89" value="18" style="connectable=0;recursiveResize=0;strokeColor=inherit;fillColor=inherit;whiteSpace=wrap;html=1;" vertex="1" parent="jdthE1kOP9W3dMnnoPZ4-86">
          <mxGeometry x="760" width="70" height="30" as="geometry">
            <mxRectangle width="70" height="30" as="alternateBounds" />
          </mxGeometry>
        </mxCell>
        <mxCell id="jdthE1kOP9W3dMnnoPZ4-90" value="" style="shape=tableRow;horizontal=0;startSize=0;swimlaneHead=0;swimlaneBody=0;top=0;left=0;bottom=0;right=0;dropTarget=0;collapsible=0;recursiveResize=0;expand=0;fontStyle=1;strokeColor=inherit;fillColor=#EAF2D3;" vertex="1" parent="jdthE1kOP9W3dMnnoPZ4-1">
          <mxGeometry y="209" width="830" height="31" as="geometry" />
        </mxCell>
        <mxCell id="jdthE1kOP9W3dMnnoPZ4-91" value="7" style="connectable=0;recursiveResize=0;strokeColor=inherit;fillColor=inherit;whiteSpace=wrap;html=1;" vertex="1" parent="jdthE1kOP9W3dMnnoPZ4-90">
          <mxGeometry width="112" height="31" as="geometry">
            <mxRectangle width="112" height="31" as="alternateBounds" />
          </mxGeometry>
        </mxCell>
        <mxCell id="jdthE1kOP9W3dMnnoPZ4-92" value="Khalil" style="connectable=0;recursiveResize=0;strokeColor=inherit;fillColor=inherit;whiteSpace=wrap;html=1;" vertex="1" parent="jdthE1kOP9W3dMnnoPZ4-90">
          <mxGeometry x="112" width="648" height="31" as="geometry">
            <mxRectangle width="648" height="31" as="alternateBounds" />
          </mxGeometry>
        </mxCell>
        <mxCell id="jdthE1kOP9W3dMnnoPZ4-93" value="18" style="connectable=0;recursiveResize=0;strokeColor=inherit;fillColor=inherit;whiteSpace=wrap;html=1;" vertex="1" parent="jdthE1kOP9W3dMnnoPZ4-90">
          <mxGeometry x="760" width="70" height="31" as="geometry">
            <mxRectangle width="70" height="31" as="alternateBounds" />
          </mxGeometry>
        </mxCell>
        <mxCell id="jdthE1kOP9W3dMnnoPZ4-94" value="" style="shape=tableRow;horizontal=0;startSize=0;swimlaneHead=0;swimlaneBody=0;top=0;left=0;bottom=0;right=0;dropTarget=0;collapsible=0;recursiveResize=0;expand=0;fontStyle=1;strokeColor=inherit;fillColor=#EAF2D3;" vertex="1" parent="jdthE1kOP9W3dMnnoPZ4-1">
          <mxGeometry y="240" width="830" height="30" as="geometry" />
        </mxCell>
        <mxCell id="jdthE1kOP9W3dMnnoPZ4-95" value="8" style="connectable=0;recursiveResize=0;strokeColor=inherit;fillColor=inherit;whiteSpace=wrap;html=1;" vertex="1" parent="jdthE1kOP9W3dMnnoPZ4-94">
          <mxGeometry width="112" height="30" as="geometry">
            <mxRectangle width="112" height="30" as="alternateBounds" />
          </mxGeometry>
        </mxCell>
        <mxCell id="jdthE1kOP9W3dMnnoPZ4-96" value="Khalil" style="connectable=0;recursiveResize=0;strokeColor=inherit;fillColor=inherit;whiteSpace=wrap;html=1;" vertex="1" parent="jdthE1kOP9W3dMnnoPZ4-94">
          <mxGeometry x="112" width="648" height="30" as="geometry">
            <mxRectangle width="648" height="30" as="alternateBounds" />
          </mxGeometry>
        </mxCell>
        <mxCell id="jdthE1kOP9W3dMnnoPZ4-97" value="18" style="connectable=0;recursiveResize=0;strokeColor=inherit;fillColor=inherit;whiteSpace=wrap;html=1;" vertex="1" parent="jdthE1kOP9W3dMnnoPZ4-94">
          <mxGeometry x="760" width="70" height="30" as="geometry">
            <mxRectangle width="70" height="30" as="alternateBounds" />
          </mxGeometry>
        </mxCell>
        <mxCell id="jdthE1kOP9W3dMnnoPZ4-98" value="" style="shape=tableRow;horizontal=0;startSize=0;swimlaneHead=0;swimlaneBody=0;top=0;left=0;bottom=0;right=0;dropTarget=0;collapsible=0;recursiveResize=0;expand=0;fontStyle=1;strokeColor=inherit;fillColor=#EAF2D3;" vertex="1" parent="jdthE1kOP9W3dMnnoPZ4-1">
          <mxGeometry y="270" width="830" height="30" as="geometry" />
        </mxCell>
        <mxCell id="jdthE1kOP9W3dMnnoPZ4-99" value="9" style="connectable=0;recursiveResize=0;strokeColor=inherit;fillColor=inherit;whiteSpace=wrap;html=1;" vertex="1" parent="jdthE1kOP9W3dMnnoPZ4-98">
          <mxGeometry width="112" height="30" as="geometry">
            <mxRectangle width="112" height="30" as="alternateBounds" />
          </mxGeometry>
        </mxCell>
        <mxCell id="jdthE1kOP9W3dMnnoPZ4-100" value="Khalil" style="connectable=0;recursiveResize=0;strokeColor=inherit;fillColor=inherit;whiteSpace=wrap;html=1;" vertex="1" parent="jdthE1kOP9W3dMnnoPZ4-98">
          <mxGeometry x="112" width="648" height="30" as="geometry">
            <mxRectangle width="648" height="30" as="alternateBounds" />
          </mxGeometry>
        </mxCell>
        <mxCell id="jdthE1kOP9W3dMnnoPZ4-101" value="18" style="connectable=0;recursiveResize=0;strokeColor=inherit;fillColor=inherit;whiteSpace=wrap;html=1;" vertex="1" parent="jdthE1kOP9W3dMnnoPZ4-98">
          <mxGeometry x="760" width="70" height="30" as="geometry">
            <mxRectangle width="70" height="30" as="alternateBounds" />
          </mxGeometry>
        </mxCell>
        <mxCell id="jdthE1kOP9W3dMnnoPZ4-102" value="" style="shape=tableRow;horizontal=0;startSize=0;swimlaneHead=0;swimlaneBody=0;top=0;left=0;bottom=0;right=0;dropTarget=0;collapsible=0;recursiveResize=0;expand=0;fontStyle=1;strokeColor=inherit;fillColor=#EAF2D3;" vertex="1" parent="jdthE1kOP9W3dMnnoPZ4-1">
          <mxGeometry y="300" width="830" height="30" as="geometry" />
        </mxCell>
        <mxCell id="jdthE1kOP9W3dMnnoPZ4-103" value="10" style="connectable=0;recursiveResize=0;strokeColor=inherit;fillColor=inherit;whiteSpace=wrap;html=1;" vertex="1" parent="jdthE1kOP9W3dMnnoPZ4-102">
          <mxGeometry width="112" height="30" as="geometry">
            <mxRectangle width="112" height="30" as="alternateBounds" />
          </mxGeometry>
        </mxCell>
        <mxCell id="jdthE1kOP9W3dMnnoPZ4-104" value="Khalil" style="connectable=0;recursiveResize=0;strokeColor=inherit;fillColor=inherit;whiteSpace=wrap;html=1;" vertex="1" parent="jdthE1kOP9W3dMnnoPZ4-102">
          <mxGeometry x="112" width="648" height="30" as="geometry">
            <mxRectangle width="648" height="30" as="alternateBounds" />
          </mxGeometry>
        </mxCell>
        <mxCell id="jdthE1kOP9W3dMnnoPZ4-105" value="18" style="connectable=0;recursiveResize=0;strokeColor=inherit;fillColor=inherit;whiteSpace=wrap;html=1;" vertex="1" parent="jdthE1kOP9W3dMnnoPZ4-102">
          <mxGeometry x="760" width="70" height="30" as="geometry">
            <mxRectangle width="70" height="30" as="alternateBounds" />
          </mxGeometry>
        </mxCell>
        <mxCell id="jdthE1kOP9W3dMnnoPZ4-106" value="" style="shape=tableRow;horizontal=0;startSize=0;swimlaneHead=0;swimlaneBody=0;top=0;left=0;bottom=0;right=0;dropTarget=0;collapsible=0;recursiveResize=0;expand=0;fontStyle=1;strokeColor=inherit;fillColor=#EAF2D3;" vertex="1" parent="jdthE1kOP9W3dMnnoPZ4-1">
          <mxGeometry y="330" width="830" height="30" as="geometry" />
        </mxCell>
        <mxCell id="jdthE1kOP9W3dMnnoPZ4-107" value="11" style="connectable=0;recursiveResize=0;strokeColor=inherit;fillColor=inherit;whiteSpace=wrap;html=1;" vertex="1" parent="jdthE1kOP9W3dMnnoPZ4-106">
          <mxGeometry width="112" height="30" as="geometry">
            <mxRectangle width="112" height="30" as="alternateBounds" />
          </mxGeometry>
        </mxCell>
        <mxCell id="jdthE1kOP9W3dMnnoPZ4-108" value="Name" style="connectable=0;recursiveResize=0;strokeColor=inherit;fillColor=inherit;whiteSpace=wrap;html=1;" vertex="1" parent="jdthE1kOP9W3dMnnoPZ4-106">
          <mxGeometry x="112" width="648" height="30" as="geometry">
            <mxRectangle width="648" height="30" as="alternateBounds" />
          </mxGeometry>
        </mxCell>
        <mxCell id="jdthE1kOP9W3dMnnoPZ4-109" value="18" style="connectable=0;recursiveResize=0;strokeColor=inherit;fillColor=inherit;whiteSpace=wrap;html=1;" vertex="1" parent="jdthE1kOP9W3dMnnoPZ4-106">
          <mxGeometry x="760" width="70" height="30" as="geometry">
            <mxRectangle width="70" height="30" as="alternateBounds" />
          </mxGeometry>
        </mxCell>
        <mxCell id="jdthE1kOP9W3dMnnoPZ4-110" value="" style="shape=tableRow;horizontal=0;startSize=0;swimlaneHead=0;swimlaneBody=0;top=0;left=0;bottom=0;right=0;dropTarget=0;collapsible=0;recursiveResize=0;expand=0;fontStyle=1;strokeColor=inherit;fillColor=#EAF2D3;" vertex="1" parent="jdthE1kOP9W3dMnnoPZ4-1">
          <mxGeometry y="360" width="830" height="30" as="geometry" />
        </mxCell>
        <mxCell id="jdthE1kOP9W3dMnnoPZ4-111" value="12" style="connectable=0;recursiveResize=0;strokeColor=inherit;fillColor=inherit;whiteSpace=wrap;html=1;" vertex="1" parent="jdthE1kOP9W3dMnnoPZ4-110">
          <mxGeometry width="112" height="30" as="geometry">
            <mxRectangle width="112" height="30" as="alternateBounds" />
          </mxGeometry>
        </mxCell>
        <mxCell id="jdthE1kOP9W3dMnnoPZ4-112" value="Khalil" style="connectable=0;recursiveResize=0;strokeColor=inherit;fillColor=inherit;whiteSpace=wrap;html=1;" vertex="1" parent="jdthE1kOP9W3dMnnoPZ4-110">
          <mxGeometry x="112" width="648" height="30" as="geometry">
            <mxRectangle width="648" height="30" as="alternateBounds" />
          </mxGeometry>
        </mxCell>
        <mxCell id="jdthE1kOP9W3dMnnoPZ4-113" value="18" style="connectable=0;recursiveResize=0;strokeColor=inherit;fillColor=inherit;whiteSpace=wrap;html=1;" vertex="1" parent="jdthE1kOP9W3dMnnoPZ4-110">
          <mxGeometry x="760" width="70" height="30" as="geometry">
            <mxRectangle width="70" height="30" as="alternateBounds" />
          </mxGeometry>
        </mxCell>
        <mxCell id="jdthE1kOP9W3dMnnoPZ4-114" value="" style="shape=tableRow;horizontal=0;startSize=0;swimlaneHead=0;swimlaneBody=0;top=0;left=0;bottom=0;right=0;dropTarget=0;collapsible=0;recursiveResize=0;expand=0;fontStyle=1;strokeColor=inherit;fillColor=#EAF2D3;" vertex="1" parent="jdthE1kOP9W3dMnnoPZ4-1">
          <mxGeometry y="390" width="830" height="30" as="geometry" />
        </mxCell>
        <mxCell id="jdthE1kOP9W3dMnnoPZ4-115" value="13" style="connectable=0;recursiveResize=0;strokeColor=inherit;fillColor=inherit;whiteSpace=wrap;html=1;" vertex="1" parent="jdthE1kOP9W3dMnnoPZ4-114">
          <mxGeometry width="112" height="30" as="geometry">
            <mxRectangle width="112" height="30" as="alternateBounds" />
          </mxGeometry>
        </mxCell>
        <mxCell id="jdthE1kOP9W3dMnnoPZ4-116" value="Khalil" style="connectable=0;recursiveResize=0;strokeColor=inherit;fillColor=inherit;whiteSpace=wrap;html=1;" vertex="1" parent="jdthE1kOP9W3dMnnoPZ4-114">
          <mxGeometry x="112" width="648" height="30" as="geometry">
            <mxRectangle width="648" height="30" as="alternateBounds" />
          </mxGeometry>
        </mxCell>
        <mxCell id="jdthE1kOP9W3dMnnoPZ4-117" value="18" style="connectable=0;recursiveResize=0;strokeColor=inherit;fillColor=inherit;whiteSpace=wrap;html=1;" vertex="1" parent="jdthE1kOP9W3dMnnoPZ4-114">
          <mxGeometry x="760" width="70" height="30" as="geometry">
            <mxRectangle width="70" height="30" as="alternateBounds" />
          </mxGeometry>
        </mxCell>
        <mxCell id="jdthE1kOP9W3dMnnoPZ4-118" value="" style="shape=tableRow;horizontal=0;startSize=0;swimlaneHead=0;swimlaneBody=0;top=0;left=0;bottom=0;right=0;dropTarget=0;collapsible=0;recursiveResize=0;expand=0;fontStyle=1;strokeColor=inherit;fillColor=#EAF2D3;" vertex="1" parent="jdthE1kOP9W3dMnnoPZ4-1">
          <mxGeometry y="420" width="830" height="31" as="geometry" />
        </mxCell>
        <mxCell id="jdthE1kOP9W3dMnnoPZ4-119" value="14" style="connectable=0;recursiveResize=0;strokeColor=inherit;fillColor=inherit;whiteSpace=wrap;html=1;" vertex="1" parent="jdthE1kOP9W3dMnnoPZ4-118">
          <mxGeometry width="112" height="31" as="geometry">
            <mxRectangle width="112" height="31" as="alternateBounds" />
          </mxGeometry>
        </mxCell>
        <mxCell id="jdthE1kOP9W3dMnnoPZ4-120" value="Khalil" style="connectable=0;recursiveResize=0;strokeColor=inherit;fillColor=inherit;whiteSpace=wrap;html=1;" vertex="1" parent="jdthE1kOP9W3dMnnoPZ4-118">
          <mxGeometry x="112" width="648" height="31" as="geometry">
            <mxRectangle width="648" height="31" as="alternateBounds" />
          </mxGeometry>
        </mxCell>
        <mxCell id="jdthE1kOP9W3dMnnoPZ4-121" value="18" style="connectable=0;recursiveResize=0;strokeColor=inherit;fillColor=inherit;whiteSpace=wrap;html=1;" vertex="1" parent="jdthE1kOP9W3dMnnoPZ4-118">
          <mxGeometry x="760" width="70" height="31" as="geometry">
            <mxRectangle width="70" height="31" as="alternateBounds" />
          </mxGeometry>
        </mxCell>
        <mxCell id="jdthE1kOP9W3dMnnoPZ4-122" value="" style="shape=tableRow;horizontal=0;startSize=0;swimlaneHead=0;swimlaneBody=0;top=0;left=0;bottom=0;right=0;dropTarget=0;collapsible=0;recursiveResize=0;expand=0;fontStyle=1;strokeColor=inherit;fillColor=#EAF2D3;" vertex="1" parent="jdthE1kOP9W3dMnnoPZ4-1">
          <mxGeometry y="451" width="830" height="30" as="geometry" />
        </mxCell>
        <mxCell id="jdthE1kOP9W3dMnnoPZ4-123" value="15" style="connectable=0;recursiveResize=0;strokeColor=inherit;fillColor=inherit;whiteSpace=wrap;html=1;" vertex="1" parent="jdthE1kOP9W3dMnnoPZ4-122">
          <mxGeometry width="112" height="30" as="geometry">
            <mxRectangle width="112" height="30" as="alternateBounds" />
          </mxGeometry>
        </mxCell>
        <mxCell id="jdthE1kOP9W3dMnnoPZ4-124" value="Khalil" style="connectable=0;recursiveResize=0;strokeColor=inherit;fillColor=inherit;whiteSpace=wrap;html=1;" vertex="1" parent="jdthE1kOP9W3dMnnoPZ4-122">
          <mxGeometry x="112" width="648" height="30" as="geometry">
            <mxRectangle width="648" height="30" as="alternateBounds" />
          </mxGeometry>
        </mxCell>
        <mxCell id="jdthE1kOP9W3dMnnoPZ4-125" value="18" style="connectable=0;recursiveResize=0;strokeColor=inherit;fillColor=inherit;whiteSpace=wrap;html=1;" vertex="1" parent="jdthE1kOP9W3dMnnoPZ4-122">
          <mxGeometry x="760" width="70" height="30" as="geometry">
            <mxRectangle width="70" height="30" as="alternateBounds" />
          </mxGeometry>
        </mxCell>
        <mxCell id="jdthE1kOP9W3dMnnoPZ4-126" value="" style="shape=tableRow;horizontal=0;startSize=0;swimlaneHead=0;swimlaneBody=0;top=0;left=0;bottom=0;right=0;dropTarget=0;collapsible=0;recursiveResize=0;expand=0;fontStyle=1;strokeColor=inherit;fillColor=#EAF2D3;" vertex="1" parent="jdthE1kOP9W3dMnnoPZ4-1">
          <mxGeometry y="481" width="830" height="30" as="geometry" />
        </mxCell>
        <mxCell id="jdthE1kOP9W3dMnnoPZ4-127" value="16" style="connectable=0;recursiveResize=0;strokeColor=inherit;fillColor=inherit;whiteSpace=wrap;html=1;" vertex="1" parent="jdthE1kOP9W3dMnnoPZ4-126">
          <mxGeometry width="112" height="30" as="geometry">
            <mxRectangle width="112" height="30" as="alternateBounds" />
          </mxGeometry>
        </mxCell>
        <mxCell id="jdthE1kOP9W3dMnnoPZ4-128" value="Khalil" style="connectable=0;recursiveResize=0;strokeColor=inherit;fillColor=inherit;whiteSpace=wrap;html=1;" vertex="1" parent="jdthE1kOP9W3dMnnoPZ4-126">
          <mxGeometry x="112" width="648" height="30" as="geometry">
            <mxRectangle width="648" height="30" as="alternateBounds" />
          </mxGeometry>
        </mxCell>
        <mxCell id="jdthE1kOP9W3dMnnoPZ4-129" value="18" style="connectable=0;recursiveResize=0;strokeColor=inherit;fillColor=inherit;whiteSpace=wrap;html=1;" vertex="1" parent="jdthE1kOP9W3dMnnoPZ4-126">
          <mxGeometry x="760" width="70" height="30" as="geometry">
            <mxRectangle width="70" height="30" as="alternateBounds" />
          </mxGeometry>
        </mxCell>
        <mxCell id="jdthE1kOP9W3dMnnoPZ4-130" value="" style="shape=tableRow;horizontal=0;startSize=0;swimlaneHead=0;swimlaneBody=0;top=0;left=0;bottom=0;right=0;dropTarget=0;collapsible=0;recursiveResize=0;expand=0;fontStyle=1;strokeColor=inherit;fillColor=#EAF2D3;" vertex="1" parent="jdthE1kOP9W3dMnnoPZ4-1">
          <mxGeometry y="511" width="830" height="30" as="geometry" />
        </mxCell>
        <mxCell id="jdthE1kOP9W3dMnnoPZ4-131" value="17" style="connectable=0;recursiveResize=0;strokeColor=inherit;fillColor=inherit;whiteSpace=wrap;html=1;" vertex="1" parent="jdthE1kOP9W3dMnnoPZ4-130">
          <mxGeometry width="112" height="30" as="geometry">
            <mxRectangle width="112" height="30" as="alternateBounds" />
          </mxGeometry>
        </mxCell>
        <mxCell id="jdthE1kOP9W3dMnnoPZ4-132" value="Khalil" style="connectable=0;recursiveResize=0;strokeColor=inherit;fillColor=inherit;whiteSpace=wrap;html=1;" vertex="1" parent="jdthE1kOP9W3dMnnoPZ4-130">
          <mxGeometry x="112" width="648" height="30" as="geometry">
            <mxRectangle width="648" height="30" as="alternateBounds" />
          </mxGeometry>
        </mxCell>
        <mxCell id="jdthE1kOP9W3dMnnoPZ4-133" value="18" style="connectable=0;recursiveResize=0;strokeColor=inherit;fillColor=inherit;whiteSpace=wrap;html=1;" vertex="1" parent="jdthE1kOP9W3dMnnoPZ4-130">
          <mxGeometry x="760" width="70" height="30" as="geometry">
            <mxRectangle width="70" height="30" as="alternateBounds" />
          </mxGeometry>
        </mxCell>
        <mxCell id="jdthE1kOP9W3dMnnoPZ4-134" value="" style="shape=tableRow;horizontal=0;startSize=0;swimlaneHead=0;swimlaneBody=0;top=0;left=0;bottom=0;right=0;dropTarget=0;collapsible=0;recursiveResize=0;expand=0;fontStyle=1;strokeColor=inherit;fillColor=#EAF2D3;" vertex="1" parent="jdthE1kOP9W3dMnnoPZ4-1">
          <mxGeometry y="541" width="830" height="30" as="geometry" />
        </mxCell>
        <mxCell id="jdthE1kOP9W3dMnnoPZ4-135" value="18" style="connectable=0;recursiveResize=0;strokeColor=inherit;fillColor=inherit;whiteSpace=wrap;html=1;" vertex="1" parent="jdthE1kOP9W3dMnnoPZ4-134">
          <mxGeometry width="112" height="30" as="geometry">
            <mxRectangle width="112" height="30" as="alternateBounds" />
          </mxGeometry>
        </mxCell>
        <mxCell id="jdthE1kOP9W3dMnnoPZ4-136" value="Khalil" style="connectable=0;recursiveResize=0;strokeColor=inherit;fillColor=inherit;whiteSpace=wrap;html=1;" vertex="1" parent="jdthE1kOP9W3dMnnoPZ4-134">
          <mxGeometry x="112" width="648" height="30" as="geometry">
            <mxRectangle width="648" height="30" as="alternateBounds" />
          </mxGeometry>
        </mxCell>
        <mxCell id="jdthE1kOP9W3dMnnoPZ4-137" value="18" style="connectable=0;recursiveResize=0;strokeColor=inherit;fillColor=inherit;whiteSpace=wrap;html=1;" vertex="1" parent="jdthE1kOP9W3dMnnoPZ4-134">
          <mxGeometry x="760" width="70" height="30" as="geometry">
            <mxRectangle width="70" height="30" as="alternateBounds" />
          </mxGeometry>
        </mxCell>
        <mxCell id="jdthE1kOP9W3dMnnoPZ4-138" value="" style="shape=tableRow;horizontal=0;startSize=0;swimlaneHead=0;swimlaneBody=0;top=0;left=0;bottom=0;right=0;dropTarget=0;collapsible=0;recursiveResize=0;expand=0;fontStyle=1;strokeColor=inherit;fillColor=#EAF2D3;" vertex="1" parent="jdthE1kOP9W3dMnnoPZ4-1">
          <mxGeometry y="571" width="830" height="30" as="geometry" />
        </mxCell>
        <mxCell id="jdthE1kOP9W3dMnnoPZ4-139" value="19" style="connectable=0;recursiveResize=0;strokeColor=inherit;fillColor=inherit;whiteSpace=wrap;html=1;" vertex="1" parent="jdthE1kOP9W3dMnnoPZ4-138">
          <mxGeometry width="112" height="30" as="geometry">
            <mxRectangle width="112" height="30" as="alternateBounds" />
          </mxGeometry>
        </mxCell>
        <mxCell id="jdthE1kOP9W3dMnnoPZ4-140" value="Name" style="connectable=0;recursiveResize=0;strokeColor=inherit;fillColor=inherit;whiteSpace=wrap;html=1;" vertex="1" parent="jdthE1kOP9W3dMnnoPZ4-138">
          <mxGeometry x="112" width="648" height="30" as="geometry">
            <mxRectangle width="648" height="30" as="alternateBounds" />
          </mxGeometry>
        </mxCell>
        <mxCell id="jdthE1kOP9W3dMnnoPZ4-141" value="18" style="connectable=0;recursiveResize=0;strokeColor=inherit;fillColor=inherit;whiteSpace=wrap;html=1;" vertex="1" parent="jdthE1kOP9W3dMnnoPZ4-138">
          <mxGeometry x="760" width="70" height="30" as="geometry">
            <mxRectangle width="70" height="30" as="alternateBounds" />
          </mxGeometry>
        </mxCell>
        <mxCell id="jdthE1kOP9W3dMnnoPZ4-142" value="" style="shape=tableRow;horizontal=0;startSize=0;swimlaneHead=0;swimlaneBody=0;top=0;left=0;bottom=0;right=0;dropTarget=0;collapsible=0;recursiveResize=0;expand=0;fontStyle=1;strokeColor=inherit;fillColor=#EAF2D3;" vertex="1" parent="jdthE1kOP9W3dMnnoPZ4-1">
          <mxGeometry y="601" width="830" height="30" as="geometry" />
        </mxCell>
        <mxCell id="jdthE1kOP9W3dMnnoPZ4-143" value="20" style="connectable=0;recursiveResize=0;strokeColor=inherit;fillColor=inherit;whiteSpace=wrap;html=1;" vertex="1" parent="jdthE1kOP9W3dMnnoPZ4-142">
          <mxGeometry width="112" height="30" as="geometry">
            <mxRectangle width="112" height="30" as="alternateBounds" />
          </mxGeometry>
        </mxCell>
        <mxCell id="jdthE1kOP9W3dMnnoPZ4-144" value="Khalil" style="connectable=0;recursiveResize=0;strokeColor=inherit;fillColor=inherit;whiteSpace=wrap;html=1;" vertex="1" parent="jdthE1kOP9W3dMnnoPZ4-142">
          <mxGeometry x="112" width="648" height="30" as="geometry">
            <mxRectangle width="648" height="30" as="alternateBounds" />
          </mxGeometry>
        </mxCell>
        <mxCell id="jdthE1kOP9W3dMnnoPZ4-145" value="18" style="connectable=0;recursiveResize=0;strokeColor=inherit;fillColor=inherit;whiteSpace=wrap;html=1;" vertex="1" parent="jdthE1kOP9W3dMnnoPZ4-142">
          <mxGeometry x="760" width="70" height="30" as="geometry">
            <mxRectangle width="70" height="30" as="alternateBounds" />
          </mxGeometry>
        </mxCell>
        <mxCell id="jdthE1kOP9W3dMnnoPZ4-146" value="" style="shape=tableRow;horizontal=0;startSize=0;swimlaneHead=0;swimlaneBody=0;top=0;left=0;bottom=0;right=0;dropTarget=0;collapsible=0;recursiveResize=0;expand=0;fontStyle=1;strokeColor=inherit;fillColor=#EAF2D3;" vertex="1" parent="jdthE1kOP9W3dMnnoPZ4-1">
          <mxGeometry y="631" width="830" height="30" as="geometry" />
        </mxCell>
        <mxCell id="jdthE1kOP9W3dMnnoPZ4-147" value="21" style="connectable=0;recursiveResize=0;strokeColor=inherit;fillColor=inherit;whiteSpace=wrap;html=1;" vertex="1" parent="jdthE1kOP9W3dMnnoPZ4-146">
          <mxGeometry width="112" height="30" as="geometry">
            <mxRectangle width="112" height="30" as="alternateBounds" />
          </mxGeometry>
        </mxCell>
        <mxCell id="jdthE1kOP9W3dMnnoPZ4-148" value="Khalil" style="connectable=0;recursiveResize=0;strokeColor=inherit;fillColor=inherit;whiteSpace=wrap;html=1;" vertex="1" parent="jdthE1kOP9W3dMnnoPZ4-146">
          <mxGeometry x="112" width="648" height="30" as="geometry">
            <mxRectangle width="648" height="30" as="alternateBounds" />
          </mxGeometry>
        </mxCell>
        <mxCell id="jdthE1kOP9W3dMnnoPZ4-149" value="18" style="connectable=0;recursiveResize=0;strokeColor=inherit;fillColor=inherit;whiteSpace=wrap;html=1;" vertex="1" parent="jdthE1kOP9W3dMnnoPZ4-146">
          <mxGeometry x="760" width="70" height="30" as="geometry">
            <mxRectangle width="70" height="30" as="alternateBounds" />
          </mxGeometry>
        </mxCell>
        <mxCell id="jdthE1kOP9W3dMnnoPZ4-150" value="" style="shape=tableRow;horizontal=0;startSize=0;swimlaneHead=0;swimlaneBody=0;top=0;left=0;bottom=0;right=0;dropTarget=0;collapsible=0;recursiveResize=0;expand=0;fontStyle=1;strokeColor=inherit;fillColor=#EAF2D3;" vertex="1" parent="jdthE1kOP9W3dMnnoPZ4-1">
          <mxGeometry y="661" width="830" height="31" as="geometry" />
        </mxCell>
        <mxCell id="jdthE1kOP9W3dMnnoPZ4-151" value="22" style="connectable=0;recursiveResize=0;strokeColor=inherit;fillColor=inherit;whiteSpace=wrap;html=1;" vertex="1" parent="jdthE1kOP9W3dMnnoPZ4-150">
          <mxGeometry width="112" height="31" as="geometry">
            <mxRectangle width="112" height="31" as="alternateBounds" />
          </mxGeometry>
        </mxCell>
        <mxCell id="jdthE1kOP9W3dMnnoPZ4-152" value="Khalil" style="connectable=0;recursiveResize=0;strokeColor=inherit;fillColor=inherit;whiteSpace=wrap;html=1;" vertex="1" parent="jdthE1kOP9W3dMnnoPZ4-150">
          <mxGeometry x="112" width="648" height="31" as="geometry">
            <mxRectangle width="648" height="31" as="alternateBounds" />
          </mxGeometry>
        </mxCell>
        <mxCell id="jdthE1kOP9W3dMnnoPZ4-153" value="18" style="connectable=0;recursiveResize=0;strokeColor=inherit;fillColor=inherit;whiteSpace=wrap;html=1;" vertex="1" parent="jdthE1kOP9W3dMnnoPZ4-150">
          <mxGeometry x="760" width="70" height="31" as="geometry">
            <mxRectangle width="70" height="31" as="alternateBounds" />
          </mxGeometry>
        </mxCell>
        <mxCell id="jdthE1kOP9W3dMnnoPZ4-154" value="" style="shape=tableRow;horizontal=0;startSize=0;swimlaneHead=0;swimlaneBody=0;top=0;left=0;bottom=0;right=0;dropTarget=0;collapsible=0;recursiveResize=0;expand=0;fontStyle=1;strokeColor=inherit;fillColor=#EAF2D3;" vertex="1" parent="jdthE1kOP9W3dMnnoPZ4-1">
          <mxGeometry y="692" width="830" height="30" as="geometry" />
        </mxCell>
        <mxCell id="jdthE1kOP9W3dMnnoPZ4-155" value="23" style="connectable=0;recursiveResize=0;strokeColor=inherit;fillColor=inherit;whiteSpace=wrap;html=1;" vertex="1" parent="jdthE1kOP9W3dMnnoPZ4-154">
          <mxGeometry width="112" height="30" as="geometry">
            <mxRectangle width="112" height="30" as="alternateBounds" />
          </mxGeometry>
        </mxCell>
        <mxCell id="jdthE1kOP9W3dMnnoPZ4-156" value="Khalil" style="connectable=0;recursiveResize=0;strokeColor=inherit;fillColor=inherit;whiteSpace=wrap;html=1;" vertex="1" parent="jdthE1kOP9W3dMnnoPZ4-154">
          <mxGeometry x="112" width="648" height="30" as="geometry">
            <mxRectangle width="648" height="30" as="alternateBounds" />
          </mxGeometry>
        </mxCell>
        <mxCell id="jdthE1kOP9W3dMnnoPZ4-157" value="18" style="connectable=0;recursiveResize=0;strokeColor=inherit;fillColor=inherit;whiteSpace=wrap;html=1;" vertex="1" parent="jdthE1kOP9W3dMnnoPZ4-154">
          <mxGeometry x="760" width="70" height="30" as="geometry">
            <mxRectangle width="70" height="30" as="alternateBounds" />
          </mxGeometry>
        </mxCell>
        <mxCell id="jdthE1kOP9W3dMnnoPZ4-158" value="" style="shape=tableRow;horizontal=0;startSize=0;swimlaneHead=0;swimlaneBody=0;top=0;left=0;bottom=0;right=0;dropTarget=0;collapsible=0;recursiveResize=0;expand=0;fontStyle=1;strokeColor=inherit;fillColor=#EAF2D3;" vertex="1" parent="jdthE1kOP9W3dMnnoPZ4-1">
          <mxGeometry y="722" width="830" height="30" as="geometry" />
        </mxCell>
        <mxCell id="jdthE1kOP9W3dMnnoPZ4-159" value="24" style="connectable=0;recursiveResize=0;strokeColor=inherit;fillColor=inherit;whiteSpace=wrap;html=1;" vertex="1" parent="jdthE1kOP9W3dMnnoPZ4-158">
          <mxGeometry width="112" height="30" as="geometry">
            <mxRectangle width="112" height="30" as="alternateBounds" />
          </mxGeometry>
        </mxCell>
        <mxCell id="jdthE1kOP9W3dMnnoPZ4-160" value="Khalil" style="connectable=0;recursiveResize=0;strokeColor=inherit;fillColor=inherit;whiteSpace=wrap;html=1;" vertex="1" parent="jdthE1kOP9W3dMnnoPZ4-158">
          <mxGeometry x="112" width="648" height="30" as="geometry">
            <mxRectangle width="648" height="30" as="alternateBounds" />
          </mxGeometry>
        </mxCell>
        <mxCell id="jdthE1kOP9W3dMnnoPZ4-161" value="18" style="connectable=0;recursiveResize=0;strokeColor=inherit;fillColor=inherit;whiteSpace=wrap;html=1;" vertex="1" parent="jdthE1kOP9W3dMnnoPZ4-158">
          <mxGeometry x="760" width="70" height="30" as="geometry">
            <mxRectangle width="70" height="30" as="alternateBounds" />
          </mxGeometry>
        </mxCell>
        <mxCell id="jdthE1kOP9W3dMnnoPZ4-162" value="" style="shape=tableRow;horizontal=0;startSize=0;swimlaneHead=0;swimlaneBody=0;top=0;left=0;bottom=0;right=0;dropTarget=0;collapsible=0;recursiveResize=0;expand=0;fontStyle=1;strokeColor=inherit;fillColor=#EAF2D3;" vertex="1" parent="jdthE1kOP9W3dMnnoPZ4-1">
          <mxGeometry y="752" width="830" height="30" as="geometry" />
        </mxCell>
        <mxCell id="jdthE1kOP9W3dMnnoPZ4-163" value="25" style="connectable=0;recursiveResize=0;strokeColor=inherit;fillColor=inherit;whiteSpace=wrap;html=1;" vertex="1" parent="jdthE1kOP9W3dMnnoPZ4-162">
          <mxGeometry width="112" height="30" as="geometry">
            <mxRectangle width="112" height="30" as="alternateBounds" />
          </mxGeometry>
        </mxCell>
        <mxCell id="jdthE1kOP9W3dMnnoPZ4-164" value="Khalil" style="connectable=0;recursiveResize=0;strokeColor=inherit;fillColor=inherit;whiteSpace=wrap;html=1;" vertex="1" parent="jdthE1kOP9W3dMnnoPZ4-162">
          <mxGeometry x="112" width="648" height="30" as="geometry">
            <mxRectangle width="648" height="30" as="alternateBounds" />
          </mxGeometry>
        </mxCell>
        <mxCell id="jdthE1kOP9W3dMnnoPZ4-165" value="18" style="connectable=0;recursiveResize=0;strokeColor=inherit;fillColor=inherit;whiteSpace=wrap;html=1;" vertex="1" parent="jdthE1kOP9W3dMnnoPZ4-162">
          <mxGeometry x="760" width="70" height="30" as="geometry">
            <mxRectangle width="70" height="30" as="alternateBounds" />
          </mxGeometry>
        </mxCell>
        <mxCell id="jdthE1kOP9W3dMnnoPZ4-22" value="Assets" style="childLayout=tableLayout;recursiveResize=0;strokeColor=#98bf21;fillColor=#A7C942;shadow=1;" vertex="1" parent="1">
          <mxGeometry x="10" y="100" width="830" height="56" as="geometry" />
        </mxCell>
        <mxCell id="jdthE1kOP9W3dMnnoPZ4-23" style="shape=tableRow;horizontal=0;startSize=0;swimlaneHead=0;swimlaneBody=0;top=0;left=0;bottom=0;right=0;dropTarget=0;collapsible=0;recursiveResize=0;expand=0;fontStyle=0;strokeColor=inherit;fillColor=#ffffff;" vertex="1" parent="jdthE1kOP9W3dMnnoPZ4-22">
          <mxGeometry width="830" height="19" as="geometry" />
        </mxCell>
        <mxCell id="jdthE1kOP9W3dMnnoPZ4-24" value="VR" style="connectable=0;recursiveResize=0;strokeColor=inherit;fillColor=#A7C942;align=center;fontStyle=1;fontColor=#FFFFFF;html=1;" vertex="1" parent="jdthE1kOP9W3dMnnoPZ4-23">
          <mxGeometry width="156" height="19" as="geometry">
            <mxRectangle width="156" height="19" as="alternateBounds" />
          </mxGeometry>
        </mxCell>
        <mxCell id="jdthE1kOP9W3dMnnoPZ4-25" value="Playstation" style="connectable=0;recursiveResize=0;strokeColor=inherit;fillColor=#A7C942;align=center;fontStyle=1;fontColor=#FFFFFF;html=1;" vertex="1" parent="jdthE1kOP9W3dMnnoPZ4-23">
          <mxGeometry x="156" width="172" height="19" as="geometry">
            <mxRectangle width="172" height="19" as="alternateBounds" />
          </mxGeometry>
        </mxCell>
        <mxCell id="jdthE1kOP9W3dMnnoPZ4-26" value="Ipad" style="connectable=0;recursiveResize=0;strokeColor=inherit;fillColor=#A7C942;align=center;fontStyle=1;fontColor=#FFFFFF;html=1;" vertex="1" parent="jdthE1kOP9W3dMnnoPZ4-23">
          <mxGeometry x="328" width="142" height="19" as="geometry">
            <mxRectangle width="142" height="19" as="alternateBounds" />
          </mxGeometry>
        </mxCell>
        <mxCell id="jdthE1kOP9W3dMnnoPZ4-49" value="Laptop" style="connectable=0;recursiveResize=0;strokeColor=inherit;fillColor=#A7C942;align=center;fontStyle=1;fontColor=#FFFFFF;html=1;" vertex="1" parent="jdthE1kOP9W3dMnnoPZ4-23">
          <mxGeometry x="470" width="125" height="19" as="geometry">
            <mxRectangle width="125" height="19" as="alternateBounds" />
          </mxGeometry>
        </mxCell>
        <mxCell id="jdthE1kOP9W3dMnnoPZ4-51" value="Iphone" style="connectable=0;recursiveResize=0;strokeColor=inherit;fillColor=#A7C942;align=center;fontStyle=1;fontColor=#FFFFFF;html=1;" vertex="1" parent="jdthE1kOP9W3dMnnoPZ4-23">
          <mxGeometry x="595" width="130" height="19" as="geometry">
            <mxRectangle width="130" height="19" as="alternateBounds" />
          </mxGeometry>
        </mxCell>
        <mxCell id="jdthE1kOP9W3dMnnoPZ4-53" value="Trip" style="connectable=0;recursiveResize=0;strokeColor=inherit;fillColor=#A7C942;align=center;fontStyle=1;fontColor=#FFFFFF;html=1;" vertex="1" parent="jdthE1kOP9W3dMnnoPZ4-23">
          <mxGeometry x="725" width="105" height="19" as="geometry">
            <mxRectangle width="105" height="19" as="alternateBounds" />
          </mxGeometry>
        </mxCell>
        <mxCell id="jdthE1kOP9W3dMnnoPZ4-27" value="" style="shape=tableRow;horizontal=0;startSize=0;swimlaneHead=0;swimlaneBody=0;top=0;left=0;bottom=0;right=0;dropTarget=0;collapsible=0;recursiveResize=0;expand=0;fontStyle=0;strokeColor=inherit;fillColor=#ffffff;" vertex="1" parent="jdthE1kOP9W3dMnnoPZ4-22">
          <mxGeometry y="19" width="830" height="37" as="geometry" />
        </mxCell>
        <mxCell id="jdthE1kOP9W3dMnnoPZ4-28" value="50 Points" style="connectable=0;recursiveResize=0;strokeColor=inherit;fillColor=inherit;align=center;whiteSpace=wrap;html=1;" vertex="1" parent="jdthE1kOP9W3dMnnoPZ4-27">
          <mxGeometry width="156" height="37" as="geometry">
            <mxRectangle width="156" height="37" as="alternateBounds" />
          </mxGeometry>
        </mxCell>
        <mxCell id="jdthE1kOP9W3dMnnoPZ4-29" value="75" style="connectable=0;recursiveResize=0;strokeColor=inherit;fillColor=inherit;align=center;whiteSpace=wrap;html=1;" vertex="1" parent="jdthE1kOP9W3dMnnoPZ4-27">
          <mxGeometry x="156" width="172" height="37" as="geometry">
            <mxRectangle width="172" height="37" as="alternateBounds" />
          </mxGeometry>
        </mxCell>
        <mxCell id="jdthE1kOP9W3dMnnoPZ4-30" value="100" style="connectable=0;recursiveResize=0;strokeColor=inherit;fillColor=inherit;align=center;whiteSpace=wrap;html=1;" vertex="1" parent="jdthE1kOP9W3dMnnoPZ4-27">
          <mxGeometry x="328" width="142" height="37" as="geometry">
            <mxRectangle width="142" height="37" as="alternateBounds" />
          </mxGeometry>
        </mxCell>
        <mxCell id="jdthE1kOP9W3dMnnoPZ4-50" value="150" style="connectable=0;recursiveResize=0;strokeColor=inherit;fillColor=inherit;align=center;whiteSpace=wrap;html=1;" vertex="1" parent="jdthE1kOP9W3dMnnoPZ4-27">
          <mxGeometry x="470" width="125" height="37" as="geometry">
            <mxRectangle width="125" height="37" as="alternateBounds" />
          </mxGeometry>
        </mxCell>
        <mxCell id="jdthE1kOP9W3dMnnoPZ4-52" value="200" style="connectable=0;recursiveResize=0;strokeColor=inherit;fillColor=inherit;align=center;whiteSpace=wrap;html=1;" vertex="1" parent="jdthE1kOP9W3dMnnoPZ4-27">
          <mxGeometry x="595" width="130" height="37" as="geometry">
            <mxRectangle width="130" height="37" as="alternateBounds" />
          </mxGeometry>
        </mxCell>
        <mxCell id="jdthE1kOP9W3dMnnoPZ4-54" value="250" style="connectable=0;recursiveResize=0;strokeColor=inherit;fillColor=inherit;align=center;whiteSpace=wrap;html=1;" vertex="1" parent="jdthE1kOP9W3dMnnoPZ4-27">
          <mxGeometry x="725" width="105" height="37" as="geometry">
            <mxRectangle width="105" height="37" as="alternateBounds" />
          </mxGeometry>
        </mxCell>
        <mxCell id="jdthE1kOP9W3dMnnoPZ4-43" value="6 A" style="rounded=1;align=center;fillColor=#F1F2F4;strokeColor=none;html=1;whiteSpace=wrap;fontColor=#596780;fontSize=18;fontStyle=1" vertex="1" parent="1">
          <mxGeometry x="10" y="160" width="831" height="76" as="geometry" />
        </mxCell>
        <mxCell id="jdthE1kOP9W3dMnnoPZ4-166" value="" style="shape=image;html=1;verticalAlign=top;verticalLabelPosition=bottom;labelBackgroundColor=#ffffff;imageAspect=0;aspect=fixed;image=https://cdn2.iconfinder.com/data/icons/font-awesome/1792/qrcode-128.png" vertex="1" parent="1">
          <mxGeometry x="754" y="156" width="87" height="87" as="geometry" />
        </mxCell>
      </root>
    </mxGraphModel>
  </diagram>
</mxfile>
